<svg width="38" height="38" viewBox="0 0 45 45" fill="none" xmlns="http://www.w3.org/2000/svg">
<path fill-rule="evenodd" clip-rule="evenodd" d="M22.5 45C34.9264 45 45 34.9264 45 22.5C45 10.0736 34.9264 0 22.5 0C10.0736 0 0 10.0736 0 22.5C0 34.9264 10.0736 45 22.5 45ZM22.4282 21.1775C22.1603 21.4906 21.7693 21.7803 21.2522 22.0404C22.0372 22.3239 22.6291 22.7709 23.0325 23.3815C23.4313 23.9921 23.6322 24.7351 23.6322 25.6073C23.6322 26.5076 23.4032 27.316 22.9453 28.0294C22.6556 28.5014 22.2911 28.9017 21.855 29.2241C21.3643 29.5948 20.7849 29.8487 20.1151 29.9873C19.4454 30.1244 18.7211 30.1914 17.9391 30.1914H11V15H18.4423C20.3207 15.028 21.6494 15.567 22.4344 16.6199C22.9048 17.2663 23.14 18.0373 23.14 18.9392C23.14 19.866 22.9048 20.6136 22.4282 21.1775ZM17.4225 17.6387H14.0702V20.991H17.815C18.4817 20.991 19.0254 20.8648 19.4444 20.614C19.8603 20.3632 20.0706 19.9177 20.0706 19.2806C20.0706 18.5702 19.7949 18.1045 19.2434 17.8755C18.7668 17.7182 18.1593 17.6387 17.4225 17.6387ZM19.3712 27.2889C19.0004 27.468 18.4786 27.5568 17.8103 27.5568H14.0702V23.5051H17.8617C18.5222 23.5098 19.0363 23.597 19.4039 23.7606C20.0581 24.0566 20.3837 24.5987 20.3837 25.3915C20.3837 26.3262 20.0472 26.9555 19.3712 27.2889ZM26.9248 15.709H33.5249V17.6001H26.9248V15.709ZM35.8184 23.1714C35.6814 22.2912 35.3792 21.517 34.9087 20.8488C34.3931 20.0917 33.7389 19.5372 32.9429 19.1867C32.15 18.8346 31.2574 18.6586 30.2636 18.6602C28.5952 18.6602 27.24 19.182 26.1917 20.2179C25.1464 21.2569 24.623 22.7508 24.623 24.6979C24.623 26.7744 25.201 28.2745 26.363 29.1951C27.5204 30.1173 28.8569 30.5768 30.3742 30.5768C32.2107 30.5768 33.6392 30.03 34.6595 28.9396C35.3122 28.2511 35.6814 27.5735 35.7624 26.9084H32.7217C32.5457 27.237 32.3416 27.4941 32.1079 27.681C31.6842 28.0237 31.1328 28.195 30.4567 28.195C29.8134 28.195 29.2682 28.0533 28.8133 27.7713C28.0625 27.3196 27.67 26.5283 27.6201 25.402H35.9181C35.9306 24.4316 35.8994 23.6854 35.8184 23.1714ZM27.695 23.4628C27.8041 22.7322 28.0689 22.1527 28.4895 21.7243C28.9101 21.2975 29.5051 21.0826 30.2668 21.081C30.9694 21.081 31.5567 21.2819 32.0349 21.6854C32.5069 22.092 32.7732 22.6823 32.8278 23.4628H27.695Z" fill="black"/>
</svg>
