<svg width="1146" height="801" viewBox="0 0 1146 801" fill="none" xmlns="http://www.w3.org/2000/svg">
<path d="M200.001 0L0 0L0 200.001L200.001 200.001L200.001 0Z" fill="#FFDD8F"/>
<path d="M99.9969 0L0 0L0 99.9969L99.9969 99.9969L99.9969 0Z" fill="#C9CCFD"/>
<path d="M99.9969 0L99.9969 99.9969L0 99.9969L99.9969 0Z" fill="#818AFA"/>
<path d="M199.994 0L99.9971 0L99.9971 99.9969L199.994 99.9969V0Z" fill="#ADB2FC"/>
<path d="M0 99.9971L99.9969 99.9971L99.9969 199.994L0 99.9971Z" fill="#C9CCFD"/>
<path d="M199.994 99.9971L99.9971 99.9971L99.9971 199.994H199.994V99.9971Z" fill="#717AF9"/>
<path d="M199.994 99.9971L199.994 199.994H99.9971L199.994 99.9971Z" fill="#FFDD8F"/>
<path d="M200.005 0L300.002 0V99.9969L200.005 99.9969V0Z" fill="#AAAFFB"/>
<path d="M200 100L299.997 100L200 199.997V100Z" fill="#D9DCFD"/>
<path d="M399.997 0L300 0V99.9969L399.997 99.9969V0Z" fill="#FFDC8B"/>
<path d="M200 0L299.997 0V99.9969L200 0Z" fill="#828AFA"/>
<path d="M1146 601H1046V700.997H1146V601Z" fill="#C9CCFD"/>
<path d="M1146 601V700.997H1046L1146 601Z" fill="#818AFA"/>
<path d="M1046 601H946V700.997H1046V601Z" fill="#717AF9"/>
<path d="M1046 601V700.997H946L1046 601Z" fill="#FFDD8F"/>
<path d="M1046 701H946V800.997H1046V701Z" fill="#B4B9FC"/>
<path d="M946 701H1046V800.997L946 701Z" fill="#FFD268"/>
<path d="M1146 701H1046V800.997H1146V701Z" fill="#FFF4DC"/>
<path d="M1046 701L1146 800.997H1046V701Z" fill="#D0D3FD"/>
<path d="M846 701H945.997V800.997L846 701Z" fill="#828AFA"/>
</svg>
