<svg width="440" height="221" viewBox="0 0 440 221" fill="none" xmlns="http://www.w3.org/2000/svg">
<path d="M219.997 0L440 0L440 220.003L219.997 220.003L219.997 0Z" fill="#FFDD8F"/>
<path d="M330.003 0L440 0V109.997L330.003 109.997V0Z" fill="#C9CCFD"/>
<path d="M330.003 0L330.003 109.997L440 109.997L330.003 0Z" fill="#818AFA"/>
<path d="M220.007 0L330.005 0V109.997L220.007 109.997L220.007 0Z" fill="#ADB2FC"/>
<path d="M440 109.998L330.003 109.998L330.003 219.996L440 109.998Z" fill="#C9CCFD"/>
<path d="M220.006 109.998L330.004 109.998V219.996L220.006 219.996L220.006 109.998Z" fill="#717AF9"/>
<path d="M220.006 109.998L220.006 219.996L330.004 219.996L220.006 109.998Z" fill="#FFDD8F"/>
<path d="M219.993 0L109.996 0L109.996 109.997L219.993 109.997L219.993 0Z" fill="#AAAFFB"/>
<path d="M219.999 110.001L110.001 110.001L219.999 219.998L219.999 110.001Z" fill="#D9DCFD"/>
<path d="M-0.000489354 0L109.997 0L109.997 109.997L-0.000489354 109.997L-0.000489354 0Z" fill="#FFDC8B"/>
<path d="M219.999 0L110.001 0L110.001 109.997L219.999 0Z" fill="#828AFA"/>
</svg>
