<svg width="38" height="38" viewBox="0 0 46 43" fill="none" xmlns="http://www.w3.org/2000/svg">
<path fill-rule="evenodd" clip-rule="evenodd" d="M23.4727 0C11.0414 0 0.972656 9.83836 0.972656 21.9723C0.972656 31.6821 7.41891 39.9162 16.357 42.8192C17.482 43.0261 17.8945 42.346 17.8945 41.7627C17.8945 41.241 17.8758 39.8584 17.8664 38.0268C11.6077 39.3516 10.2877 35.079 10.2877 35.079C9.26391 32.543 7.78453 31.8647 7.78453 31.8647C5.74641 30.5026 7.94203 30.5306 7.94203 30.5306C10.2014 30.6834 11.3883 32.7945 11.3883 32.7945C13.3945 36.1541 16.6552 35.1833 17.9414 34.6225C18.1439 33.2007 18.7233 32.2337 19.3664 31.684C14.3695 31.1343 9.11766 29.2449 9.11766 20.8264C9.11766 18.4283 9.98953 16.4681 11.4333 14.9308C11.1802 14.3756 10.4208 12.1414 11.6302 9.11539C11.6302 9.11539 13.5145 8.52658 17.8177 11.3682C19.6177 10.88 21.5302 10.6377 23.4427 10.6265C25.3552 10.6377 27.2677 10.88 29.0677 11.3682C33.3427 8.52658 35.227 9.11539 35.227 9.11539C36.4364 12.1414 35.677 14.3756 35.452 14.9308C36.8864 16.4681 37.7583 18.4283 37.7583 20.8264C37.7583 29.2673 32.4989 31.125 27.4927 31.6654C28.2802 32.325 29.0114 33.6722 29.0114 35.7311C29.0114 38.6715 28.9833 41.0342 28.9833 41.7478C28.9833 42.3236 29.377 43.0112 30.5302 42.7913C39.532 39.9069 45.9727 31.6672 45.9727 21.9723C45.9727 9.83836 35.8983 0 23.4727 0V0Z" fill="black"/>
</svg>
