<svg width="38" height="38" viewBox="0 0 45 45" fill="none" xmlns="http://www.w3.org/2000/svg">
<path fill-rule="evenodd" clip-rule="evenodd" d="M22.5 45C34.9264 45 45 34.9264 45 22.5C45 10.0736 34.9264 0 22.5 0C10.0736 0 0 10.0736 0 22.5C0 34.9264 10.0736 45 22.5 45ZM16.826 32.8845C17.2451 32.8845 17.5848 32.5446 17.5848 32.1252V18.575C17.5848 18.1556 17.2451 17.8157 16.826 17.8157H13.5959C13.1768 17.8157 12.8371 18.1556 12.8371 18.575V32.1252C12.8371 32.5446 13.1768 32.8845 13.5959 32.8845H16.826ZM15.1598 16.4742C13.4783 16.4742 12.1151 15.111 12.1151 13.4295C12.1151 11.7479 13.4783 10.3848 15.1598 10.3848C16.8414 10.3848 18.2046 11.7479 18.2046 13.4295C18.2046 15.111 16.8414 16.4742 15.1598 16.4742ZM33.7155 32.8846C34.0985 32.8846 34.4091 32.5724 34.4091 32.1873V25.6383V25.59C34.4093 22.7329 34.4096 17.6093 28.9228 17.6093C26.431 17.6093 25.2607 18.5262 24.4732 19.7141V18.5336C24.4732 18.1485 24.1626 17.8363 23.7796 17.8363H20.4468C20.0637 17.8363 19.7531 18.1485 19.7531 18.5336V32.1873C19.7531 32.5724 20.0637 32.8846 20.4468 32.8846H23.7796C24.1627 32.8846 24.4732 32.5724 24.4732 32.1873V24.8666C24.5597 23.883 24.9905 21.6911 27.1142 21.6911C29.6505 21.6911 29.6002 24.439 29.5791 25.5965C29.5774 25.6885 29.5759 25.7705 29.5759 25.8403V32.1873C29.5759 32.5724 29.8865 32.8846 30.2695 32.8846H33.7155Z" fill="black"/>
</svg>
